<svg xmlns="http://www.w3.org/2000/svg" viewBox="0 0 100 100" id="engine" fill="#3b82f6">
    <path d="M42 17h26v6H42v-6zm-1 8h28v2H41v-2zm3.6 4h20.8l-2 4H46.6l-2-4zM12 73H6V45h6v28zm2-9V54h5v10h-5zm65 19H34.5l-3.7-5.6c-.2-.2-.5-.4-.8-.4h-9V41h9c.3 0 .6-.2.8-.4l3.7-5.6H79v48zm2-3V38h3v42h-3zm13-2c0 2.8-2.2 5-5 5h-3V35h3c2.8 0 5 2.2 5 5v38z"></path>
    <path d="M55 39c-11 0-20 9-20 20s9 20 20 20 20-9 20-20-9-20-20-20zm0 38c-9.9 0-18-8.1-18-18s8.1-18 18-18 18 8.1 18 18-8.1 18-18 18z"></path>
    <path d="M65.6 48.4C62.9 45.7 59.1 44 55 44s-7.9 1.7-10.6 4.4C41.7 51.1 40 54.9 40 59s1.7 7.9 4.4 10.6C47.1 72.3 50.9 74 55 74s7.9-1.7 10.6-4.4C68.3 66.9 70 63.1 70 59s-1.7-7.9-4.4-10.6zm-.7 19L58.4 61c.2-.3.3-.7.4-1h9.1c-.2 2.8-1.3 5.4-3 7.4zM42.1 60h9.1c.1.4.2.7.4 1l-6.4 6.4c-1.8-2-2.9-4.6-3.1-7.4zm3-9.4 6.4 6.4c-.2.3-.3.7-.4 1H42c.3-2.8 1.4-5.4 3.1-7.4zM55 61c-1.1 0-2-.9-2-2s.9-2 2-2 2 .9 2 2-.9 2-2 2zm2-5.4c-.3-.2-.7-.3-1-.4v-9.1c2.8.2 5.4 1.3 7.4 3.1L57 55.6zm-3-.5c-.4.1-.7.2-1 .4l-6.4-6.4c2-1.7 4.6-2.9 7.4-3.1v9.1zm-1 7.3c.3.2.7.3 1 .4v9.1c-2.8-.2-5.4-1.3-7.4-3.1l6.4-6.4zm3 .5c.4-.1.7-.2 1-.4l6.4 6.4c-2 1.7-4.6 2.9-7.4 3.1v-9.1zm2.9-4.9c-.1-.4-.2-.7-.4-1l6.4-6.4c1.7 2 2.9 4.6 3.1 7.4h-9.1z"></path>
</svg>